<svg width="49" height="30" viewBox="0 0 49 30" fill="none" xmlns="http://www.w3.org/2000/svg">
  <path d="M12.271 0C16.0813 0 19.079 1.1335 21.2643 3.3997C22.9205 5.07416 23.9572 7.31181 24.3739 10.1134C24.5141 11.0558 24.5841 12.0616 24.5841 13.1308V27.2809H33.0729C35.6504 27.2809 37.9057 26.7708 39.8388 25.7508C41.7719 24.7029 43.2708 23.272 44.3353 21.4587C45.4 19.6177 45.9322 17.5069 45.9322 15.1273C45.9322 12.7477 45.4 10.6512 44.3353 8.83874C43.2708 6.99691 41.7719 5.56675 39.8388 4.54668C37.9057 3.49806 35.6504 2.97454 33.0729 2.97454H24.3739V0.25462H33.241C36.3507 0.25462 39.0963 0.892361 41.4777 2.16705C43.8591 3.41318 45.708 5.17014 47.0249 7.43634C48.3416 9.67399 49 12.2376 49 15.1273C49 18.017 48.3416 20.5949 47.0249 22.8611C45.708 25.0995 43.8591 26.8557 41.4777 28.1304C39.0963 29.3765 36.3507 30 33.241 30H21.5163V12.8333C21.5163 9.51852 20.7038 7.02546 19.079 5.35417C17.4541 3.65432 15.1848 2.80479 12.271 2.80479C9.35733 2.80479 7.08811 3.65432 5.46312 5.35417C3.83813 7.02546 3.02583 9.51852 3.02583 12.8333V17.8694H18.4754V21.1184H3.02583V30H0V13.1308C0 8.88078 1.09255 5.63734 3.27783 3.3997C5.49116 1.1335 8.48895 0 12.271 0Z" fill="white"/>
</svg>